<svg preserveAspectRatio="none" width="100%" height="100%" overflow="visible" style="display: block;" viewBox="0 0 32 32" fill="none" xmlns="http://www.w3.org/2000/svg">
<g id="Icon">
<path id="Vector" d="M20.6357 17.1866L22.6557 28.5546C22.6783 28.6885 22.6595 28.8261 22.6018 28.949C22.5442 29.0719 22.4503 29.1742 22.3329 29.2424C22.2155 29.3105 22.0801 29.3412 21.9447 29.3303C21.8094 29.3193 21.6807 29.2674 21.5757 29.1813L16.8023 25.5986C16.5719 25.4265 16.292 25.3335 16.0043 25.3335C15.7167 25.3335 15.4368 25.4265 15.2063 25.5986L10.425 29.18C10.3201 29.2659 10.1915 29.3178 10.0563 29.3287C9.92117 29.3396 9.7859 29.3091 9.66855 29.2411C9.55121 29.1732 9.45737 29.0711 9.39956 28.9484C9.34175 28.8258 9.32272 28.6884 9.345 28.5546L11.3637 17.1866" stroke="var(--stroke-0, white)" stroke-width="2.66667" stroke-linecap="round" stroke-linejoin="round"/>
<path id="Vector_2" d="M16 18.6667C20.4183 18.6667 24 15.0849 24 10.6667C24 6.24839 20.4183 2.66667 16 2.66667C11.5817 2.66667 8 6.24839 8 10.6667C8 15.0849 11.5817 18.6667 16 18.6667Z" stroke="var(--stroke-0, white)" stroke-width="2.66667" stroke-linecap="round" stroke-linejoin="round"/>
</g>
</svg>
