<svg preserveAspectRatio="none" width="100%" height="100%" overflow="visible" style="display: block;" viewBox="0 0 32 32" fill="none" xmlns="http://www.w3.org/2000/svg">
<g id="Icon">
<path id="Vector" d="M5.33397 18.6667C5.08166 18.6675 4.83428 18.5968 4.62058 18.4627C4.40688 18.3285 4.23562 18.1365 4.12671 17.9089C4.0178 17.6813 3.9757 17.4275 4.00531 17.1769C4.03492 16.9263 4.13501 16.6893 4.29397 16.4933L17.494 2.89335C17.593 2.77906 17.7279 2.70182 17.8766 2.67432C18.0253 2.64683 18.1789 2.6707 18.3123 2.74202C18.4456 2.81334 18.5508 2.92788 18.6104 3.06682C18.6701 3.20577 18.6807 3.36088 18.6406 3.50668L16.0806 11.5333C16.0052 11.7354 15.9798 11.9527 16.0068 12.1667C16.0337 12.3807 16.1122 12.5849 16.2354 12.7619C16.3587 12.9389 16.523 13.0834 16.7143 13.1829C16.9057 13.2824 17.1183 13.334 17.334 13.3333H26.6673C26.9196 13.3325 27.167 13.4032 27.3807 13.5374C27.5944 13.6715 27.7657 13.8635 27.8746 14.0911C27.9835 14.3187 28.0256 14.5726 27.996 14.8231C27.9664 15.0737 27.8663 15.3107 27.7073 15.5067L14.5073 29.1067C14.4083 29.221 14.2734 29.2982 14.1247 29.3257C13.976 29.3532 13.8223 29.3293 13.689 29.258C13.5557 29.1867 13.4505 29.0722 13.3909 28.9332C13.3312 28.7943 13.3205 28.6392 13.3606 28.4933L15.9206 20.4667C15.9961 20.2646 16.0215 20.0473 15.9945 19.8333C15.9676 19.6194 15.8891 19.4151 15.7659 19.2381C15.6426 19.0611 15.4783 18.9167 15.2869 18.8171C15.0956 18.7176 14.883 18.666 14.6673 18.6667H5.33397Z" stroke="var(--stroke-0, white)" stroke-width="2.66667" stroke-linecap="round" stroke-linejoin="round"/>
</g>
</svg>
