<svg preserveAspectRatio="none" width="100%" height="100%" overflow="visible" style="display: block;" viewBox="0 0 32 32" fill="none" xmlns="http://www.w3.org/2000/svg">
<g id="Icon">
<path id="Vector" d="M26.6673 17.3333C26.6673 24 22.0007 27.3333 16.454 29.2667C16.1635 29.3651 15.848 29.3604 15.5607 29.2533C10.0007 27.3333 5.33398 24 5.33398 17.3333V8.00001C5.33398 7.64639 5.47446 7.30725 5.72451 7.0572C5.97456 6.80715 6.3137 6.66668 6.66732 6.66668C9.33398 6.66668 12.6673 5.06668 14.9873 3.04001C15.2698 2.79867 15.6291 2.66608 16.0007 2.66608C16.3722 2.66608 16.7315 2.79867 17.014 3.04001C19.3473 5.08001 22.6673 6.66668 25.334 6.66668C25.6876 6.66668 26.0267 6.80715 26.2768 7.0572C26.5268 7.30725 26.6673 7.64639 26.6673 8.00001V17.3333Z" stroke="var(--stroke-0, white)" stroke-width="2.66667" stroke-linecap="round" stroke-linejoin="round"/>
</g>
</svg>
