<svg preserveAspectRatio="none" width="100%" height="100%" overflow="visible" style="display: block;" viewBox="0 0 32 32" fill="none" xmlns="http://www.w3.org/2000/svg">
<g id="Icon">
<path id="Vector" d="M16.2933 2.66667H15.7067C14.9994 2.66667 14.3211 2.94762 13.821 3.44771C13.321 3.94781 13.04 4.62609 13.04 5.33333V5.57333C13.0395 6.04097 12.9161 6.50025 12.6821 6.90512C12.448 7.30998 12.1116 7.64618 11.7067 7.88L11.1333 8.21333C10.7279 8.44738 10.2681 8.5706 9.8 8.5706C9.3319 8.5706 8.87205 8.44738 8.46667 8.21333L8.26667 8.10667C7.65475 7.75368 6.92778 7.65792 6.24534 7.84041C5.56289 8.0229 4.98073 8.46871 4.62667 9.08L4.33333 9.58667C3.98035 10.1986 3.88459 10.9256 4.06708 11.608C4.24956 12.2904 4.69538 12.8726 5.30667 13.2267L5.50667 13.36C5.9097 13.5927 6.24483 13.9268 6.47873 14.3291C6.71264 14.7314 6.83719 15.188 6.84 15.6533V16.3333C6.84187 16.8032 6.71953 17.2653 6.48539 17.6727C6.25125 18.0801 5.91361 18.4184 5.50667 18.6533L5.30667 18.7733C4.69538 19.1274 4.24956 19.7096 4.06708 20.392C3.88459 21.0744 3.98035 21.8014 4.33333 22.4133L4.62667 22.92C4.98073 23.5313 5.56289 23.9771 6.24534 24.1596C6.92778 24.3421 7.65475 24.2463 8.26667 23.8933L8.46667 23.7867C8.87205 23.5526 9.3319 23.4294 9.8 23.4294C10.2681 23.4294 10.7279 23.5526 11.1333 23.7867L11.7067 24.12C12.1116 24.3538 12.448 24.69 12.6821 25.0949C12.9161 25.4997 13.0395 25.959 13.04 26.4267V26.6667C13.04 27.3739 13.321 28.0522 13.821 28.5523C14.3211 29.0524 14.9994 29.3333 15.7067 29.3333H16.2933C17.0006 29.3333 17.6789 29.0524 18.179 28.5523C18.679 28.0522 18.96 27.3739 18.96 26.6667V26.4267C18.9605 25.959 19.0839 25.4997 19.3179 25.0949C19.552 24.69 19.8884 24.3538 20.2933 24.12L20.8667 23.7867C21.2721 23.5526 21.7319 23.4294 22.2 23.4294C22.6681 23.4294 23.1279 23.5526 23.5333 23.7867L23.7333 23.8933C24.3452 24.2463 25.0722 24.3421 25.7547 24.1596C26.4371 23.9771 27.0193 23.5313 27.3733 22.92L27.6667 22.4C28.0196 21.7881 28.1154 21.0611 27.9329 20.3787C27.7504 19.6962 27.3046 19.1141 26.6933 18.76L26.4933 18.6533C26.0864 18.4184 25.7488 18.0801 25.5146 17.6727C25.2805 17.2653 25.1581 16.8032 25.16 16.3333V15.6667C25.1581 15.1968 25.2805 14.7347 25.5146 14.3273C25.7488 13.9199 26.0864 13.5816 26.4933 13.3467L26.6933 13.2267C27.3046 12.8726 27.7504 12.2904 27.9329 11.608C28.1154 10.9256 28.0196 10.1986 27.6667 9.58667L27.3733 9.08C27.0193 8.46871 26.4371 8.0229 25.7547 7.84041C25.0722 7.65792 24.3452 7.75368 23.7333 8.10667L23.5333 8.21333C23.1279 8.44738 22.6681 8.5706 22.2 8.5706C21.7319 8.5706 21.2721 8.44738 20.8667 8.21333L20.2933 7.88C19.8884 7.64618 19.552 7.30998 19.3179 6.90512C19.0839 6.50025 18.9605 6.04097 18.96 5.57333V5.33333C18.96 4.62609 18.679 3.94781 18.179 3.44771C17.6789 2.94762 17.0006 2.66667 16.2933 2.66667Z" stroke="var(--stroke-0, white)" stroke-width="2.66667" stroke-linecap="round" stroke-linejoin="round"/>
<path id="Vector_2" d="M16 20C18.2091 20 20 18.2091 20 16C20 13.7909 18.2091 12 16 12C13.7909 12 12 13.7909 12 16C12 18.2091 13.7909 20 16 20Z" stroke="var(--stroke-0, white)" stroke-width="2.66667" stroke-linecap="round" stroke-linejoin="round"/>
</g>
</svg>
